<svg xmlns="http://www.w3.org/2000/svg" viewBox="0 0 1600 420" preserveAspectRatio="xMidYMid slice">
  <defs>
    <linearGradient id="bg" x1="0" x2="1" y1="0" y2="1">
      <stop offset="0" stop-color="#eef2ff"/>
      <stop offset=".56" stop-color="#eff6ff"/>
      <stop offset="1" stop-color="#dcfce7"/>
    </linearGradient>
    <filter id="s" x="-20%" y="-20%" width="140%" height="150%">
      <feDropShadow dx="0" dy="18" stdDeviation="16" flood-color="#10213d" flood-opacity=".18"/>
    </filter>
  </defs>
  <rect width="1600" height="420" fill="url(#bg)"/>
  <path d="M0 335c210-95 374-40 592-82 250-48 402-116 660-84 138 18 246 68 348 116v135H0Z" fill="#bfdbfe" opacity=".7"/>
  <path d="M0 386c210-42 420-20 655-48 292-34 512-96 756-42 70 15 132 35 189 58v66H0Z" fill="#bbf7d0" opacity=".54"/>
  <circle cx="1450" cy="84" r="132" fill="#22c55e" opacity=".25"/>
  <g transform="translate(96 92)">
    <rect width="226" height="56" rx="28" fill="#2554df"/>
    <text x="113" y="37" text-anchor="middle" font-family="Arial, sans-serif" font-size="25" font-weight="900" fill="#fff">CONTACTO</text>
    <text x="0" y="132" font-family="Arial, sans-serif" font-size="64" font-weight="900" fill="#10213d">Pedidos y coordinacion</text>
    <text x="3" y="184" font-family="Arial, sans-serif" font-size="34" fill="#53647d">Atencion directa por telefono, WhatsApp y mercado</text>
  </g>
  <g transform="translate(980 64)" filter="url(#s)">
    <rect width="384" height="284" rx="34" fill="#ffffff" opacity=".95"/>
    <path d="M76 72c56-40 134-42 194-8 58 34 74 88 44 136-42 68-152 62-246 34" fill="none" stroke="#dbeafe" stroke-width="18" stroke-linecap="round"/>
    <circle cx="84" cy="76" r="30" fill="#f97316"/>
    <circle cx="308" cy="198" r="34" fill="#16a34a"/>
    <path d="M76 60c-24 0-44 20-44 44 0 38 44 84 44 84s44-46 44-84c0-24-20-44-44-44zm0 62a18 18 0 1 1 0-36 18 18 0 0 1 0 36z" fill="#2554df"/>
    <rect x="126" y="218" width="158" height="38" rx="19" fill="#fff4df"/>
    <text x="205" y="243" text-anchor="middle" font-family="Arial, sans-serif" font-size="17" font-weight="900" fill="#92400e">Entrega rapida</text>
  </g>
</svg>
