<svg xmlns="http://www.w3.org/2000/svg" viewBox="0 0 1600 420" preserveAspectRatio="xMidYMid slice">
  <defs>
    <linearGradient id="bg" x1="0" x2="1" y1="0" y2="1">
      <stop offset="0" stop-color="#eaf4ff"/>
      <stop offset=".55" stop-color="#f8fbff"/>
      <stop offset="1" stop-color="#fff2cf"/>
    </linearGradient>
    <filter id="s" x="-20%" y="-20%" width="140%" height="150%">
      <feDropShadow dx="0" dy="20" stdDeviation="18" flood-color="#10213d" flood-opacity=".18"/>
    </filter>
  </defs>
  <rect width="1600" height="420" fill="url(#bg)"/>
  <path d="M0 310c180-96 336-86 514-68 246 26 426-48 660-73 178-19 304 15 426 62v189H0Z" fill="#dbeafe" opacity=".9"/>
  <path d="M0 350c216-54 388-38 610-48 288-13 506-80 806-60 71 5 133 14 184 26v152H0Z" fill="#f8d49a" opacity=".52"/>
  <circle cx="1410" cy="62" r="140" fill="#60a5fa" opacity=".22"/>
  <circle cx="198" cy="386" r="126" fill="#facc15" opacity=".33"/>
  <g transform="translate(96 88)">
    <rect width="244" height="56" rx="28" fill="#2554df"/>
    <text x="122" y="37" text-anchor="middle" font-family="Arial, sans-serif" font-size="25" font-weight="900" fill="#fff">POLLO FRESCO</text>
    <text x="0" y="132" font-family="Arial, sans-serif" font-size="64" font-weight="900" fill="#10213d">Atencion de confianza</text>
    <text x="3" y="183" font-family="Arial, sans-serif" font-size="34" fill="#53647d">Tradicion diaria en el mercado Ayaymama</text>
  </g>
  <g transform="translate(950 72)" filter="url(#s)">
    <rect width="420" height="268" rx="34" fill="#ffffff" opacity=".95"/>
    <rect x="42" y="62" width="336" height="128" rx="20" fill="#eef6ff"/>
    <rect x="74" y="100" width="74" height="52" rx="14" fill="#2554df"/>
    <rect x="178" y="86" width="128" height="78" rx="18" fill="#f97316"/>
    <circle cx="318" cy="126" r="34" fill="#16a34a"/>
    <path d="M78 222h260" stroke="#d7e2ef" stroke-width="12" stroke-linecap="round"/>
    <path d="M112 248h192" stroke="#d7e2ef" stroke-width="12" stroke-linecap="round"/>
  </g>
</svg>
