<svg xmlns="http://www.w3.org/2000/svg" viewBox="0 0 1600 420" preserveAspectRatio="xMidYMid slice">
  <defs>
    <linearGradient id="bg" x1="0" x2="1" y1="0" y2="1">
      <stop offset="0" stop-color="#fff4d9"/>
      <stop offset=".48" stop-color="#ffe0b5"/>
      <stop offset="1" stop-color="#d9edff"/>
    </linearGradient>
    <linearGradient id="blue" x1="0" x2="1">
      <stop offset="0" stop-color="#2554df"/>
      <stop offset="1" stop-color="#123b9f"/>
    </linearGradient>
    <filter id="shadow" x="-20%" y="-20%" width="140%" height="150%">
      <feDropShadow dx="0" dy="22" stdDeviation="18" flood-color="#24406d" flood-opacity=".22"/>
    </filter>
  </defs>
  <rect width="1600" height="420" fill="url(#bg)"/>
  <path d="M0 318C225 215 450 278 690 202c251-80 455-70 670-118 95-21 174-55 240-84v420H0Z" fill="#fff7e5" opacity=".72"/>
  <path d="M0 368c250-74 420-30 620-85 270-74 475-48 735-96 104-19 181-41 245-69v302H0Z" fill="#ffbd77" opacity=".42"/>
  <circle cx="112" cy="64" r="118" fill="#fff" opacity=".34"/>
  <circle cx="1460" cy="88" r="154" fill="#ffc107" opacity=".5"/>
  <circle cx="296" cy="388" r="118" fill="#ffd670" opacity=".55"/>
  <g transform="translate(96 92)">
    <rect width="274" height="58" rx="29" fill="url(#blue)"/>
    <text x="137" y="38" text-anchor="middle" font-family="Arial, sans-serif" font-size="27" font-weight="900" fill="#fff">POLLO FRESCO</text>
    <text x="0" y="134" font-family="Arial, sans-serif" font-size="66" font-weight="900" fill="#10213d">Productos frescos</text>
    <text x="3" y="184" font-family="Arial, sans-serif" font-size="34" fill="#53647d">Pollo, congelados y huevos para hogares y negocios</text>
    <g transform="translate(0 220)">
      <rect width="178" height="42" rx="21" fill="#ffffff" opacity=".85"/>
      <text x="89" y="28" text-anchor="middle" font-family="Arial, sans-serif" font-size="17" font-weight="800" fill="#173668">Seleccion diaria</text>
      <rect x="194" width="152" height="42" rx="21" fill="#ffffff" opacity=".85"/>
      <text x="270" y="28" text-anchor="middle" font-family="Arial, sans-serif" font-size="17" font-weight="800" fill="#173668">Venta rapida</text>
    </g>
  </g>
  <g transform="translate(880 80)" filter="url(#shadow)">
    <rect x="0" y="0" width="560" height="260" rx="34" fill="#ffffff" opacity=".94"/>
    <g transform="translate(46 48)">
      <ellipse cx="96" cy="94" rx="94" ry="68" fill="#ffb703"/>
      <circle cx="55" cy="60" r="20" fill="#fb8500"/>
      <path d="M156 48l76-36-40 82z" fill="#fb8500"/>
      <path d="M36 124c45 34 109 36 165 5" fill="none" stroke="#fff7d6" stroke-width="13" stroke-linecap="round" opacity=".72"/>
    </g>
    <g transform="translate(290 42)">
      <rect x="0" y="34" width="184" height="86" rx="22" fill="#dbeafe"/>
      <path d="M22 62h140M22 92h140" stroke="#3b82f6" stroke-width="12" stroke-linecap="round"/>
      <rect x="8" y="142" width="176" height="62" rx="18" fill="#fef3c7"/>
      <circle cx="44" cy="173" r="19" fill="#fff"/>
      <circle cx="91" cy="173" r="19" fill="#fff"/>
      <circle cx="138" cy="173" r="19" fill="#fff"/>
    </g>
  </g>
</svg>
