<svg xmlns="http://www.w3.org/2000/svg" viewBox="0 0 1200 760" preserveAspectRatio="xMidYMid slice">
  <defs>
    <linearGradient id="bg" x1="0" x2="1" y1="0" y2="1"><stop offset="0" stop-color="#dbeafe"/><stop offset="1" stop-color="#16a34a"/></linearGradient>
    <filter id="s" x="-20%" y="-20%" width="140%" height="140%"><feDropShadow dx="0" dy="24" stdDeviation="20" flood-color="#064e3b" flood-opacity=".24"/></filter>
  </defs>
  <rect width="1200" height="760" fill="url(#bg)"/>
  <circle cx="1080" cy="130" r="190" fill="#bfdbfe" opacity=".55"/>
  <circle cx="128" cy="614" r="210" fill="#bbf7d0" opacity=".6"/>
  <path d="M0 540c220-90 432-48 650-94 270-57 390-130 550-90v404H0z" fill="#eff6ff" opacity=".74"/>
  <g filter="url(#s)" transform="translate(610 160)">
    <rect width="440" height="330" rx="44" fill="#fff"/>
    <rect x="56" y="70" width="328" height="158" rx="30" fill="#e0f2fe"/>
    <path d="M94 116h252M94 166h252" stroke="#16a34a" stroke-width="18" stroke-linecap="round"/>
    <rect x="92" y="252" width="252" height="38" rx="19" fill="#dcfce7"/>
  </g>
  <g transform="translate(82 118)">
    <rect width="294" height="56" rx="28" fill="#2554df"/>
    <text x="147" y="37" text-anchor="middle" font-family="Arial, sans-serif" font-size="23" font-weight="900" fill="#fff">VENTA MAYORISTA</text>
    <text x="0" y="135" font-family="Arial, sans-serif" font-size="70" font-weight="900" fill="#10213d">Pedidos para negocio</text>
    <text x="0" y="190" font-family="Arial, sans-serif" font-size="32" fill="#53647d">Abastecimiento coordinado y entregas puntuales</text>
  </g>
</svg>
