<svg xmlns="http://www.w3.org/2000/svg" viewBox="0 0 1200 760" preserveAspectRatio="xMidYMid slice">
  <defs>
    <linearGradient id="bg" x1="0" x2="1" y1="0" y2="1"><stop offset="0" stop-color="#fff7ed"/><stop offset="1" stop-color="#f97316"/></linearGradient>
    <filter id="s" x="-20%" y="-20%" width="140%" height="140%"><feDropShadow dx="0" dy="24" stdDeviation="20" flood-color="#7c2d12" flood-opacity=".24"/></filter>
  </defs>
  <rect width="1200" height="760" fill="url(#bg)"/>
  <circle cx="1050" cy="90" r="170" fill="#fff" opacity=".26"/>
  <circle cx="130" cy="610" r="210" fill="#fed7aa" opacity=".64"/>
  <path d="M0 560c230-114 410-68 620-144 220-80 382-142 580-104v448H0z" fill="#fff7ed" opacity=".72"/>
  <g filter="url(#s)" transform="translate(612 170)">
    <rect width="430" height="320" rx="42" fill="#fff"/>
    <ellipse cx="190" cy="164" rx="142" ry="104" fill="#ffb703"/>
    <circle cx="128" cy="112" r="31" fill="#fb8500"/>
    <path d="M276 90l115-54-60 123z" fill="#fb8500"/>
    <path d="M84 224c76 47 172 47 246-4" fill="none" stroke="#fff1c2" stroke-width="18" stroke-linecap="round"/>
  </g>
  <g transform="translate(82 118)">
    <rect width="256" height="56" rx="28" fill="#2554df"/>
    <text x="128" y="37" text-anchor="middle" font-family="Arial, sans-serif" font-size="23" font-weight="900" fill="#fff">CORTE FRESCO</text>
    <text x="0" y="135" font-family="Arial, sans-serif" font-size="72" font-weight="900" fill="#10213d">Cortes limpios</text>
    <text x="0" y="190" font-family="Arial, sans-serif" font-size="32" fill="#53647d">Pechuga, filete, piernas y alitas listos para cocinar</text>
  </g>
</svg>
