<svg xmlns="http://www.w3.org/2000/svg" viewBox="0 0 1200 760" preserveAspectRatio="xMidYMid slice">
  <defs>
    <linearGradient id="bg" x1="0" x2="1" y1="0" y2="1"><stop offset="0" stop-color="#fff4d9"/><stop offset="1" stop-color="#f59e0b"/></linearGradient>
    <filter id="s" x="-20%" y="-20%" width="140%" height="140%"><feDropShadow dx="0" dy="24" stdDeviation="20" flood-color="#713f12" flood-opacity=".24"/></filter>
  </defs>
  <rect width="1200" height="760" fill="url(#bg)"/>
  <circle cx="1012" cy="120" r="180" fill="#fff" opacity=".3"/>
  <path d="M0 538c242-105 482-42 690-116 208-75 320-158 510-112v450H0z" fill="#fff7ed" opacity=".72"/>
  <g filter="url(#s)" transform="translate(618 172)">
    <rect width="418" height="300" rx="42" fill="#fff"/>
    <ellipse cx="200" cy="142" rx="128" ry="96" fill="#ffb703"/>
    <circle cx="142" cy="88" r="28" fill="#fb8500"/>
    <path d="M272 86l98-50-48 112z" fill="#fb8500"/>
    <path d="M94 202c72 44 154 42 222 0" fill="none" stroke="#fff1c2" stroke-width="17" stroke-linecap="round"/>
  </g>
  <g transform="translate(82 118)">
    <rect width="250" height="56" rx="28" fill="#2554df"/>
    <text x="125" y="37" text-anchor="middle" font-family="Arial, sans-serif" font-size="23" font-weight="900" fill="#fff">POLLO FRESCO</text>
    <text x="0" y="135" font-family="Arial, sans-serif" font-size="74" font-weight="900" fill="#10213d">Pollo entero</text>
    <text x="0" y="190" font-family="Arial, sans-serif" font-size="32" fill="#53647d">Frescura diaria seleccionada para tu cocina</text>
  </g>
</svg>
